<svg id="图层_1" data-name="图层 1" xmlns="http://www.w3.org/2000/svg" viewBox="0 0 16 15"><defs><style>.cls-1{fill:#ccc;}</style></defs><title>设置</title><g id="icon-Setting"><path id="Shape" class="cls-1" d="M10.4,15h0a1,1,0,0,1-.76-.32A3,3,0,0,0,8,13.7a3,3,0,0,0-1.67,1,1.06,1.06,0,0,1-.76.32,1,1,0,0,1-.38-.08h0l-2-1.09h0a.93.93,0,0,1-.32-1.13A2.47,2.47,0,0,0,3,11.87,2.08,2.08,0,0,0,.93,9.8H.85c-.33,0-.6-.29-.68-.74A9.24,9.24,0,0,1,0,7.51,9.58,9.58,0,0,1,.17,6c.08-.45.36-.75.69-.74H.93A2.07,2.07,0,0,0,3,3.15a2.31,2.31,0,0,0-.18-.79.92.92,0,0,1,.32-1.13l0,0L5.24.08h0A1,1,0,0,1,5.64,0a1,1,0,0,1,.75.31A3,3,0,0,0,8,1.22,2.93,2.93,0,0,0,9.68.32a1.08,1.08,0,0,1,.74-.3,1,1,0,0,1,.39.08h0l2,1.1,0,0a.92.92,0,0,1,.32,1.13,2.31,2.31,0,0,0-.18.79,2.07,2.07,0,0,0,2.08,2.06h.07c.33,0,.61.29.69.74A9.58,9.58,0,0,1,16,7.51a9.24,9.24,0,0,1-.17,1.55c-.08.46-.36.75-.69.74h-.07A2.08,2.08,0,0,0,13,11.87a2.47,2.47,0,0,0,.18.79.93.93,0,0,1-.32,1.13h0l-2,1.12h0A1,1,0,0,1,10.4,15Zm-.06-.95h.06l1.9-1a3.32,3.32,0,0,1-.25-1.15,3,3,0,0,1,2.86-3,9.34,9.34,0,0,0,.15-1.36,9.53,9.53,0,0,0-.15-1.37,3,3,0,0,1-2.86-3A3.4,3.4,0,0,1,12.3,2L10.43,1h0l-.07,0a5.26,5.26,0,0,1-.69.57A2.83,2.83,0,0,1,8,2.16a2.9,2.9,0,0,1-1.63-.62A5.86,5.86,0,0,1,5.71,1H5.63L3.7,2A3.4,3.4,0,0,1,4,3.15a3,3,0,0,1-2.86,3A9.53,9.53,0,0,0,.94,7.51a9.34,9.34,0,0,0,.15,1.36,3,3,0,0,1,2.86,3A3.32,3.32,0,0,1,3.7,13l1.83,1h0l.07,0a5.31,5.31,0,0,1,.7-.61A2.92,2.92,0,0,1,8,12.77a2.85,2.85,0,0,1,1.67.66A5.39,5.39,0,0,1,10.34,14.05ZM8,10.25A2.75,2.75,0,1,1,10.74,7.5,2.77,2.77,0,0,1,8,10.25ZM8,5.68A1.82,1.82,0,1,0,9.79,7.5,1.83,1.83,0,0,0,8,5.68Z"/></g></svg>