<svg id="图层_1" data-name="图层 1" xmlns="http://www.w3.org/2000/svg" viewBox="0 0 120 95"><defs><style>.cls-1{fill:#ccc;}</style></defs><title>储能_太阳能</title><path id="太阳能icon" class="cls-1" d="M117,79.1,97.46,33.9A1.47,1.47,0,0,0,96.11,33l-67.76-7.3h0a1.64,1.64,0,0,0-.32.05l-.09,0a1.45,1.45,0,0,0-.22.09l-.11.06-.09,0L25,27.77a1.45,1.45,0,0,0-.48,1.77l7.59,18L2.56,44.35h0l-.22,0-.05,0-.15.06-.06,0-.06,0L.39,45.66a1,1,0,0,0-.31,1.15L13.94,79.62a1,1,0,0,0,.86.55H33.74l.92,3.09-6.93,4.57a.63.63,0,0,0-.23.75.62.62,0,0,0,.58.4h.09L42,87l10.28-2.09a.62.62,0,0,0,.5-.66.63.63,0,0,0-.59-.58l-9.69-.45V80.17h3.4l.13.3a1.48,1.48,0,0,0,1.34.86h29.4l1.43,4.79L67.43,93.23a1,1,0,0,0-.37,1.15A1,1,0,0,0,68,95h.14l21.43-3,16-3.26a1,1,0,0,0-.15-1.91l-15-.71V81.33h25.42a1.46,1.46,0,0,0,1.47-1.46A1.37,1.37,0,0,0,117,79.1Zm-7-8.77L98,69.9l-2.17-1.5L93.7,63.31l1.16-1.45,11.74.58ZM40.22,66.74l-5.81-.29-1.54-1.06L31.3,61.71l.76-.94,5.79.37Zm3.08-8.43-4-9.33,12.32.79,2.26,1.46,2.76,6.46-1.15,1.23Zm11.79-6.82,1.14-1.43,13.2.85,2.38,1.54,2.59,6.09-1.19,1.27-13.53-.68-1.89-1.3ZM73,52.68l1.17-1.47L86.22,52l2.2,1.42,2.55,6-1.18,1.26-12-.6-2.4-1.65ZM85.57,51,73.46,50.2l-2.19-1.51-2.52-5.9,1-1.26,12.5,1,2.09,1.35,2.47,5.8ZM70.23,48.75l-1.1,1.17-13.46-.87-2.31-1.59-2.58-6.05,1-1.28,13.94,1.08,1.78,1.16ZM52.34,47.56,51.2,48.77,38.9,48,35,38.83l12.24,1,2.45,1.58ZM37.58,60.49l-6-.38-1.41-1-1.62-3.8.64-.81,6,.47Zm-8-1.31-.71.75-8.67-.55-1.49-1L17,54.45l.65-.82,9,.7,1.15.74Zm-9,.85,8.5.54,1.53,1,1.68,3.92-.77.82-8.72-.43L21.52,65,19.78,61Zm2.8,6.49,8.57.43,1.33.86,1.63,3.82-.66.7L25.47,72l-1.37-.94-1.53-3.6ZM34,68l.74-.94,5.76.29,2.21,5.25-5.9-.21-1.32-.91Zm9.73-8.73,12,.6,2.6,1.69,2.45,5.74-1.12,1.18-12.23-.44Zm15.69,2.32,1.17-1.47,13.29.66,2.07,1.34,2.53,5.92-1,1.08-13.53-.48L61.79,67.2Zm17.74.86L78.3,61l11.88.59,2.41,1.56,2.23,5.24-1.23,1.32L81.5,69.3l-2-1.41Zm29-1-12-.6-2.07-1.43-2.49-5.84,1-1.31,11.94.76ZM102.11,52l-11.88-.77-2.35-1.61-2.35-5.52,1-1.31,12,.93Zm-7-16.11,2.95,6.82-11.74-.91-2.55-1.75-2.4-5.62ZM80.3,34.35l2.49,5.85L81.6,41.47l-11.79-.91L67,38.6l-2.53-5.93Zm-17-1.8L66,38.84l-1.25,1.33-13.4-1-2.21-1.52-2.93-6.87ZM45.11,30.62,48,37.48l-1.22,1.3-12.23-1-3.71-8.72ZM33,49.58l2,4.77-5.71-.45-1.83-1.26-1.63-3.82Zm-7.88-.84,1.73,4.06-.8.85L17.38,53,16,52l-1.89-4.42ZM4.19,46.53l9.17,1,1.88,4.42-.78.84-7.88-.62Zm2.66,6.26,7.88.61,1.58,1,1.71,4-.74.78-7.92-.5Zm2.78,6.54,7.94.51,1.46.94,1.77,4.16-.74.8-7.87-.4ZM12.46,66l7.74.39,1.68,1.08,1.58,3.7-.72.76-7.88-.28ZM17.69,78.3l-2.56-6,7.86.29,1.47.94,2.05,4.81Zm9.5,0-2-4.61.82-1,8.27.29,1.52,1,1.86,4.36Zm3.55,9,4.71-3.12,4.17,1.86Zm10.48-1.91L38.67,84.3l2.55.12Zm0-2.27-5.35-.25-.82-2.75h6.17v3Zm5.89,1.53-4.63.94V84.48Zm-8.74-6.4-1.76-4.13.88-1.1,5.48.2,2.13,5Zm13.47.13-4-9.37,12.21.44L62.34,71l3.19,7.46Zm14.74,0-3-7.16,1.27-1.6,12.84.46L80,71.66l2.88,6.77Zm5.51,14,7.32-4.84,6.46,2.89Zm16.27-3-4-1.77,4,.19Zm0-3.52-8.3-.39-1.28-4.27h9.58V86Zm9.15,2.37-7.19,1.46V88ZM83.94,78.43,81.21,72l1.36-1.7,11.63.42,2.21,1.43,2.67,6.26H83.94Zm16.2,0-2.58-6.07,1.17-1.47,11.7.42,3.07,7.12Zm3.8-71.95a10.33,10.33,0,1,0,10.41,10.33A10.39,10.39,0,0,0,103.94,6.48Zm0,18.72a8.39,8.39,0,1,1,8.46-8.39A8.44,8.44,0,0,1,103.94,25.2ZM87.88,11.77a.43.43,0,0,1,0-.19.49.49,0,0,1,.61-.31l2.67.86a.49.49,0,0,1-.15.95h0l-.15,0-2.67-.86A.47.47,0,0,1,87.88,11.77Zm6-7.88A.48.48,0,0,1,94,3.21a.49.49,0,0,1,.68.11l1.65,2.25a.48.48,0,0,1-.11.68.47.47,0,0,1-.28.09.51.51,0,0,1-.4-.2h0Zm17.7,2.31a.47.47,0,0,1-.11-.67l1.65-2.25a.48.48,0,0,1,.68-.11.47.47,0,0,1,.11.67L112.27,6.1a.48.48,0,0,1-.68.1Zm4.77,6.47a.47.47,0,0,1,.31-.61l2.66-.86a.49.49,0,1,1,.31.92L117,13a.39.39,0,0,1-.15,0A.47.47,0,0,1,116.36,12.67ZM120,21.84a.5.5,0,0,1-.47.33l-.15,0-2.67-.86a.48.48,0,0,1-.31-.61.47.47,0,0,1,.61-.31l2.67.86A.48.48,0,0,1,120,21.84Zm-6,7.69a.47.47,0,0,1-.11.67.42.42,0,0,1-.28.1.51.51,0,0,1-.4-.2l-1.65-2.25a.49.49,0,0,1,.79-.57Zm-10.49,3.4V30.15a.49.49,0,0,1,.49-.48.43.43,0,0,1,.19,0,.48.48,0,0,1,.3.44v2.78a.49.49,0,0,1-1,0Zm-9.62-3a.4.4,0,0,1,0-.19.48.48,0,0,1,.08-.18l1.64-2.25a.5.5,0,0,1,.69-.1.48.48,0,0,1,.19.31.42.42,0,0,1-.09.36l-1.64,2.25a.51.51,0,0,1-.4.2.52.52,0,0,1-.29-.09A.51.51,0,0,1,93.87,29.94Zm-2.35-9.19a.49.49,0,0,1-.31.61h0l-2.67.86-.15,0a.49.49,0,0,1-.47-.34.62.62,0,0,1,0-.19.48.48,0,0,1,.34-.42l2.66-.86A.5.5,0,0,1,91.52,20.75ZM103.41,3.27V.48a.49.49,0,0,1,1,0V3.27a.49.49,0,0,1-.49.48.48.48,0,0,1-.49-.48Z" transform="translate(0)"/></svg>