<svg id="图层_1" data-name="图层 1" xmlns="http://www.w3.org/2000/svg" viewBox="0 0 118 104"><defs><style>.cls-1{fill:#ccc;}</style></defs><title>储能_风能</title><path class="cls-1" d="M117.63,68.06l-13-10.63-.14-.09-5.67-3.27a5.22,5.22,0,0,0-1.1-1.93V45.45L95,29a1,1,0,0,0-2,0l-2.76,16.5v6.69a5,5,0,0,0-.68,1l-17.12-14-.14-.1L65,34.81a6.81,6.81,0,0,0-1.84-3V23.16l0-.16L59.49,1.08a1,1,0,0,0-2,0L53.86,23l0,.16v8.62a6.81,6.81,0,0,0-1.84,3L44.71,39l-.14.1L28.09,52.59a3.37,3.37,0,0,0-.32-.45V45.45L25,29a1,1,0,0,0-2,0l-2.76,16.5v6.69a5.22,5.22,0,0,0-1.1,1.93l-5.67,3.27-.14.09L.37,68.06a1,1,0,0,0,1,1.7l15.73-5.87.15-.07,3.68-2.12-2.51,41a1.48,1.48,0,0,0,.41,1.11,1.5,1.5,0,0,0,1.09.47h8.21a1.5,1.5,0,0,0,1.09-.47,1.48,1.48,0,0,0,.41-1.11l-2.51-41,3.68,2.12.15.07,15.73,5.87a1,1,0,0,0,1-1.7l-13-10.63-.14-.09-5-2.88L49.21,47.1l.15-.07,5.79-3.32-3.09,58a1.52,1.52,0,0,0,.41,1.11,1.49,1.49,0,0,0,1.09.46h9.88a1.49,1.49,0,0,0,1.5-1.57l-3.09-58L67.64,47l.15.07,20.28,7.58-4.61,2.66-.14.09-13,10.63a1,1,0,0,0,1,1.7l15.73-5.87.15-.07,3.68-2.12-2.51,41a1.48,1.48,0,0,0,.41,1.11,1.5,1.5,0,0,0,1.09.47h8.21a1.5,1.5,0,0,0,1.09-.47,1.48,1.48,0,0,0,.41-1.11l-2.51-41,3.68,2.12.15.07,15.73,5.87A1,1,0,0,0,117.63,68.06ZM92.23,45.7,94,35.18,95.74,45.7v5.08a3.47,3.47,0,0,0-.46-.13,2.8,2.8,0,0,0-.31-.09,5,5,0,0,0-1-.1H94a5,5,0,0,0-1,.1c-.11,0-.21.06-.32.09a3.33,3.33,0,0,0-.45.13ZM55.84,23.24,58.5,7.32l2.66,15.92v7.22l-.26-.1-.2-.08a8,8,0,0,0-1-.25l-.18,0a6.29,6.29,0,0,0-2.12,0l-.18,0a7.81,7.81,0,0,0-.95.25l-.21.08-.26.1ZM22.26,45.7,24,35.18,25.77,45.7v5.08a3.47,3.47,0,0,0-.46-.13,2.8,2.8,0,0,0-.31-.09,5,5,0,0,0-1-.1H24a5,5,0,0,0-1,.1,2.8,2.8,0,0,0-.31.09,3.47,3.47,0,0,0-.46.13ZM16.32,62.05l-10,3.75L14.56,59,19,56.47a.14.14,0,0,0,0,.06c0,.09,0,.18.06.28a4.48,4.48,0,0,0,.2.62,2.33,2.33,0,0,0,.11.28,5.76,5.76,0,0,0,.33.6l.11.19a5.19,5.19,0,0,0,.92,1Zm5.18,39.21L23.91,62h.21l2.41,39.22Zm5.56-45.09a.94.94,0,0,1,0,.16,2.91,2.91,0,0,1-.12.39,1.11,1.11,0,0,1-.07.16,2.15,2.15,0,0,1-.19.37.75.75,0,0,0-.07.12,3.12,3.12,0,0,1-.79.79l-.11.08c-.12.07-.24.14-.37.2l-.17.07a2.94,2.94,0,0,1-2.23,0l-.17-.07c-.13-.06-.25-.13-.37-.2l-.11-.08a3.12,3.12,0,0,1-.79-.79.75.75,0,0,0-.07-.12,2.15,2.15,0,0,1-.19-.37,1.11,1.11,0,0,1-.07-.16,2.91,2.91,0,0,1-.12-.39.94.94,0,0,1,0-.16,2.86,2.86,0,0,1-.06-.58,3.11,3.11,0,0,1,1.25-2.5,1.24,1.24,0,0,1,.18-.14l.32-.18.19-.09.39-.12.18-.05a2.69,2.69,0,0,1,.57-.06H24a2.69,2.69,0,0,1,.57.06l.18.05c.13,0,.27.07.39.12l.19.09.32.18a1.24,1.24,0,0,1,.18.14,3.11,3.11,0,0,1,1.25,2.5A2.86,2.86,0,0,1,27.06,56.17ZM41.75,65.8l-10-3.75-4.43-2.54a5.19,5.19,0,0,0,.92-1l.11-.19a5.76,5.76,0,0,0,.33-.6,2.33,2.33,0,0,0,.11-.28,4.48,4.48,0,0,0,.2-.62c0-.1.05-.19.06-.28a.14.14,0,0,0,0-.06L33.47,59Zm6.68-20.53L33.25,50.94,45.78,40.69l6-3.44c0,.1,0,.21,0,.32l0,.22a6.63,6.63,0,0,0,.18.77s0,.06,0,.09a6.16,6.16,0,0,0,.3.79l.11.23a6.65,6.65,0,0,0,.33.58,1.74,1.74,0,0,0,.11.18,4.81,4.81,0,0,0,.47.62l.21.24.42.4c.07.06.13.13.2.18l.07.06Zm13.43,55H55.14l3-55.52h.8Zm.57-60.9a4.92,4.92,0,0,1-.5.61l-.14.13a5.85,5.85,0,0,1-.54.45l-.13.09a4.69,4.69,0,0,1-5.24,0l-.13-.09a5.85,5.85,0,0,1-.54-.45,1.59,1.59,0,0,1-.13-.13,4.23,4.23,0,0,1-.51-.61l0,0a4.78,4.78,0,0,1-.4-.74,1.18,1.18,0,0,1-.07-.2,4.35,4.35,0,0,1-.2-.61,1.84,1.84,0,0,1,0-.25,4.71,4.71,0,0,1-.09-.85h0a5.34,5.34,0,0,1,.1-1,4.81,4.81,0,0,1,1.87-2.86,2.11,2.11,0,0,1,.27-.18c.16-.1.32-.19.5-.28l.28-.13a5.58,5.58,0,0,1,.58-.18L57.6,32a5.28,5.28,0,0,1,.9-.09h0a5.28,5.28,0,0,1,.9.09l.27.07a5.58,5.58,0,0,1,.58.18l.28.13c.18.09.34.18.5.28l.27.18a4.76,4.76,0,0,1,1.87,2.86,5.34,5.34,0,0,1,.1,1h0a4.71,4.71,0,0,1-.09.85,1.84,1.84,0,0,1,0,.25,6.17,6.17,0,0,1-.19.61c0,.07,0,.14-.08.2a4.78,4.78,0,0,1-.4.74Zm6.14,5.9-5.82-3.34.07-.06c.07,0,.13-.12.2-.18l.42-.4.21-.24a4.81,4.81,0,0,0,.47-.62,1.74,1.74,0,0,0,.11-.18,6.65,6.65,0,0,0,.33-.58l.11-.23a6.16,6.16,0,0,0,.3-.79s0-.06,0-.09a6.63,6.63,0,0,0,.18-.77l0-.22c0-.11,0-.22,0-.32l6,3.44L83.75,50.94ZM86.28,62.05l-10,3.75L84.53,59,89,56.47s0,0,0,.06,0,.19.07.28.12.42.19.62l.12.28c.1.21.2.4.32.6l.12.19a5.19,5.19,0,0,0,.92,1Zm5.19,39.21L93.88,62h.21l2.41,39.22ZM97.09,55.6a2.6,2.6,0,0,1-.06.56,1.16,1.16,0,0,1,0,.18c0,.13-.07.25-.11.37l-.08.18a3.13,3.13,0,0,1-.19.36l-.08.12a2.93,2.93,0,0,1-.78.79l-.12.08a2,2,0,0,1-.36.19l-.17.08a2.94,2.94,0,0,1-2.23,0l-.17-.08a2,2,0,0,1-.36-.19l-.12-.08a2.93,2.93,0,0,1-.78-.79l-.08-.12a3.13,3.13,0,0,1-.19-.36l-.08-.18c0-.12-.08-.24-.11-.37a1.16,1.16,0,0,1,0-.18,2.6,2.6,0,0,1-.06-.56h0s0-.05,0-.08a3.12,3.12,0,0,1,1.23-2.42,1.33,1.33,0,0,1,.19-.14l.32-.17.19-.1c.12,0,.25-.08.38-.12l.19-.05a2.69,2.69,0,0,1,.57-.06H94a2.69,2.69,0,0,1,.57.06l.19.05c.13,0,.26.07.38.12l.19.1.32.17a1.33,1.33,0,0,1,.19.14,3.12,3.12,0,0,1,1.23,2.42s0,.05,0,.08Zm4.59,6.45-4.42-2.54a5.19,5.19,0,0,0,.92-1l.12-.19c.12-.2.22-.39.32-.6l.12-.28c.07-.2.13-.41.19-.62s0-.19.07-.28,0,0,0-.06L103.44,59l8.28,6.78Z" transform="translate(0 -0.25)"/></svg>